<mxfile host="app.diagrams.net" modified="2024-03-03T20:38:10.578Z" agent="Mozilla/5.0 (Macintosh; Intel Mac OS X 10_15_7) AppleWebKit/605.1.15 (KHTML, like Gecko) Version/16.5.1 Safari/605.1.15" etag="sBxPoDRFZNDpPxuszZZy" version="23.1.6" type="device">
  <diagram name="1 oldal" id="Z1Y7rWqb52iOzYp9XdTF">
    <mxGraphModel dx="2187" dy="2463" grid="1" gridSize="10" guides="1" tooltips="1" connect="1" arrows="1" fold="1" page="1" pageScale="1" pageWidth="827" pageHeight="1169" math="0" shadow="0">
      <root>
        <mxCell id="0" />
        <mxCell id="1" parent="0" />
        <mxCell id="hT2JEiL4Q5DK7T2SiJuw-1" value="Felhasználó" style="rounded=0;whiteSpace=wrap;html=1;" vertex="1" parent="1">
          <mxGeometry x="420" y="-30" width="120" height="60" as="geometry" />
        </mxCell>
        <mxCell id="hT2JEiL4Q5DK7T2SiJuw-2" value="Kép" style="rounded=0;whiteSpace=wrap;html=1;" vertex="1" parent="1">
          <mxGeometry x="420" y="510" width="120" height="60" as="geometry" />
        </mxCell>
        <mxCell id="hT2JEiL4Q5DK7T2SiJuw-3" value="Kategória" style="rounded=0;whiteSpace=wrap;html=1;" vertex="1" parent="1">
          <mxGeometry x="780" y="295" width="120" height="60" as="geometry" />
        </mxCell>
        <mxCell id="hT2JEiL4Q5DK7T2SiJuw-4" value="Komment" style="rounded=0;whiteSpace=wrap;html=1;" vertex="1" parent="1">
          <mxGeometry x="70" y="420" width="120" height="60" as="geometry" />
        </mxCell>
        <mxCell id="hT2JEiL4Q5DK7T2SiJuw-5" value="&lt;u&gt;FelhasználóID&lt;/u&gt;" style="ellipse;whiteSpace=wrap;html=1;" vertex="1" parent="1">
          <mxGeometry x="530" y="-130" width="100" height="40" as="geometry" />
        </mxCell>
        <mxCell id="hT2JEiL4Q5DK7T2SiJuw-6" value="Felhasználónév" style="ellipse;whiteSpace=wrap;html=1;" vertex="1" parent="1">
          <mxGeometry x="600" y="-20" width="100" height="40" as="geometry" />
        </mxCell>
        <mxCell id="hT2JEiL4Q5DK7T2SiJuw-8" value="Jelszó" style="ellipse;whiteSpace=wrap;html=1;" vertex="1" parent="1">
          <mxGeometry x="414" y="-140" width="100" height="40" as="geometry" />
        </mxCell>
        <mxCell id="hT2JEiL4Q5DK7T2SiJuw-15" value="&lt;u&gt;KépID&lt;/u&gt;" style="ellipse;whiteSpace=wrap;html=1;" vertex="1" parent="1">
          <mxGeometry x="535" y="620" width="100" height="50" as="geometry" />
        </mxCell>
        <mxCell id="hT2JEiL4Q5DK7T2SiJuw-16" value="Cím" style="ellipse;whiteSpace=wrap;html=1;" vertex="1" parent="1">
          <mxGeometry x="420" y="630" width="100" height="40" as="geometry" />
        </mxCell>
        <mxCell id="hT2JEiL4Q5DK7T2SiJuw-18" value="Fájl_elérési_útvonal" style="ellipse;whiteSpace=wrap;html=1;" vertex="1" parent="1">
          <mxGeometry x="590" y="570" width="120" height="50" as="geometry" />
        </mxCell>
        <mxCell id="hT2JEiL4Q5DK7T2SiJuw-19" value="&lt;u&gt;KategóriaID&lt;/u&gt;" style="ellipse;whiteSpace=wrap;html=1;" vertex="1" parent="1">
          <mxGeometry x="910" y="265" width="100" height="40" as="geometry" />
        </mxCell>
        <mxCell id="hT2JEiL4Q5DK7T2SiJuw-20" value="Név" style="ellipse;whiteSpace=wrap;html=1;" vertex="1" parent="1">
          <mxGeometry x="860" y="365" width="100" height="40" as="geometry" />
        </mxCell>
        <mxCell id="hT2JEiL4Q5DK7T2SiJuw-21" value="Leírás" style="ellipse;whiteSpace=wrap;html=1;" vertex="1" parent="1">
          <mxGeometry x="940" y="315" width="100" height="40" as="geometry" />
        </mxCell>
        <mxCell id="hT2JEiL4Q5DK7T2SiJuw-23" value="&lt;u&gt;KommentID&lt;/u&gt;" style="ellipse;whiteSpace=wrap;html=1;" vertex="1" parent="1">
          <mxGeometry x="-20" y="520" width="100" height="40" as="geometry" />
        </mxCell>
        <mxCell id="hT2JEiL4Q5DK7T2SiJuw-24" value="Tartalom" style="ellipse;whiteSpace=wrap;html=1;" vertex="1" parent="1">
          <mxGeometry x="-70" y="460" width="100" height="40" as="geometry" />
        </mxCell>
        <mxCell id="hT2JEiL4Q5DK7T2SiJuw-25" value="Dátum" style="ellipse;whiteSpace=wrap;html=1;" vertex="1" parent="1">
          <mxGeometry x="-50" y="400" width="100" height="40" as="geometry" />
        </mxCell>
        <mxCell id="hT2JEiL4Q5DK7T2SiJuw-26" value="Létrehoz" style="rhombus;whiteSpace=wrap;html=1;" vertex="1" parent="1">
          <mxGeometry x="425" y="330" width="110" height="90" as="geometry" />
        </mxCell>
        <mxCell id="hT2JEiL4Q5DK7T2SiJuw-30" value="Vezetéknév" style="ellipse;whiteSpace=wrap;html=1;" vertex="1" parent="1">
          <mxGeometry x="314" y="-120" width="100" height="40" as="geometry" />
        </mxCell>
        <mxCell id="hT2JEiL4Q5DK7T2SiJuw-31" value="Keresztnév" style="ellipse;whiteSpace=wrap;html=1;" vertex="1" parent="1">
          <mxGeometry x="250" y="-70" width="100" height="40" as="geometry" />
        </mxCell>
        <mxCell id="hT2JEiL4Q5DK7T2SiJuw-32" value="Email" style="ellipse;whiteSpace=wrap;html=1;" vertex="1" parent="1">
          <mxGeometry x="600" y="-80" width="100" height="40" as="geometry" />
        </mxCell>
        <mxCell id="hT2JEiL4Q5DK7T2SiJuw-35" value="" style="endArrow=none;html=1;rounded=0;entryX=0.5;entryY=0;entryDx=0;entryDy=0;exitX=1;exitY=1;exitDx=0;exitDy=0;" edge="1" parent="1" source="hT2JEiL4Q5DK7T2SiJuw-30" target="hT2JEiL4Q5DK7T2SiJuw-1">
          <mxGeometry width="50" height="50" relative="1" as="geometry">
            <mxPoint x="405.35533905932743" y="-75.85786437626939" as="sourcePoint" />
            <mxPoint x="320" y="-30" as="targetPoint" />
          </mxGeometry>
        </mxCell>
        <mxCell id="hT2JEiL4Q5DK7T2SiJuw-38" value="" style="endArrow=none;html=1;rounded=0;entryX=0.5;entryY=0;entryDx=0;entryDy=0;exitX=0.5;exitY=1;exitDx=0;exitDy=0;" edge="1" parent="1" source="hT2JEiL4Q5DK7T2SiJuw-8" target="hT2JEiL4Q5DK7T2SiJuw-1">
          <mxGeometry width="50" height="50" relative="1" as="geometry">
            <mxPoint x="317" y="-42" as="sourcePoint" />
            <mxPoint x="350" as="targetPoint" />
          </mxGeometry>
        </mxCell>
        <mxCell id="hT2JEiL4Q5DK7T2SiJuw-39" value="" style="endArrow=none;html=1;rounded=0;exitX=0;exitY=1;exitDx=0;exitDy=0;entryX=0.5;entryY=0;entryDx=0;entryDy=0;" edge="1" parent="1" source="hT2JEiL4Q5DK7T2SiJuw-5" target="hT2JEiL4Q5DK7T2SiJuw-1">
          <mxGeometry width="50" height="50" relative="1" as="geometry">
            <mxPoint x="474" y="-90" as="sourcePoint" />
            <mxPoint x="480" y="-30" as="targetPoint" />
          </mxGeometry>
        </mxCell>
        <mxCell id="hT2JEiL4Q5DK7T2SiJuw-40" value="" style="endArrow=none;html=1;rounded=0;entryX=0.5;entryY=0;entryDx=0;entryDy=0;exitX=0;exitY=0.5;exitDx=0;exitDy=0;" edge="1" parent="1" source="hT2JEiL4Q5DK7T2SiJuw-32" target="hT2JEiL4Q5DK7T2SiJuw-1">
          <mxGeometry width="50" height="50" relative="1" as="geometry">
            <mxPoint x="484" y="-80" as="sourcePoint" />
            <mxPoint x="500" y="-10" as="targetPoint" />
          </mxGeometry>
        </mxCell>
        <mxCell id="hT2JEiL4Q5DK7T2SiJuw-41" value="" style="endArrow=none;html=1;rounded=0;entryX=1;entryY=0.5;entryDx=0;entryDy=0;exitX=0;exitY=0.5;exitDx=0;exitDy=0;" edge="1" parent="1" source="hT2JEiL4Q5DK7T2SiJuw-6" target="hT2JEiL4Q5DK7T2SiJuw-1">
          <mxGeometry width="50" height="50" relative="1" as="geometry">
            <mxPoint x="494" y="-70" as="sourcePoint" />
            <mxPoint x="510" as="targetPoint" />
          </mxGeometry>
        </mxCell>
        <mxCell id="hT2JEiL4Q5DK7T2SiJuw-43" value="" style="endArrow=none;html=1;rounded=0;entryX=1;entryY=0.5;entryDx=0;entryDy=0;exitX=0;exitY=1;exitDx=0;exitDy=0;" edge="1" parent="1" source="hT2JEiL4Q5DK7T2SiJuw-19" target="hT2JEiL4Q5DK7T2SiJuw-3">
          <mxGeometry width="50" height="50" relative="1" as="geometry">
            <mxPoint x="915" y="299" as="sourcePoint" />
            <mxPoint x="600" y="195" as="targetPoint" />
          </mxGeometry>
        </mxCell>
        <mxCell id="hT2JEiL4Q5DK7T2SiJuw-44" value="" style="endArrow=none;html=1;rounded=0;exitX=0;exitY=0.5;exitDx=0;exitDy=0;entryX=1;entryY=0.5;entryDx=0;entryDy=0;" edge="1" parent="1" source="hT2JEiL4Q5DK7T2SiJuw-21" target="hT2JEiL4Q5DK7T2SiJuw-3">
          <mxGeometry width="50" height="50" relative="1" as="geometry">
            <mxPoint x="925" y="309" as="sourcePoint" />
            <mxPoint x="900" y="325" as="targetPoint" />
          </mxGeometry>
        </mxCell>
        <mxCell id="hT2JEiL4Q5DK7T2SiJuw-45" value="" style="endArrow=none;html=1;rounded=0;entryX=1;entryY=0.5;entryDx=0;entryDy=0;" edge="1" parent="1" target="hT2JEiL4Q5DK7T2SiJuw-3">
          <mxGeometry width="50" height="50" relative="1" as="geometry">
            <mxPoint x="910" y="365" as="sourcePoint" />
            <mxPoint x="917" y="345" as="targetPoint" />
          </mxGeometry>
        </mxCell>
        <mxCell id="hT2JEiL4Q5DK7T2SiJuw-46" value="" style="endArrow=none;html=1;rounded=0;entryX=1;entryY=1;entryDx=0;entryDy=0;exitX=0;exitY=0;exitDx=0;exitDy=0;" edge="1" parent="1" source="hT2JEiL4Q5DK7T2SiJuw-15" target="hT2JEiL4Q5DK7T2SiJuw-2">
          <mxGeometry width="50" height="50" relative="1" as="geometry">
            <mxPoint x="945" y="329" as="sourcePoint" />
            <mxPoint x="927" y="355" as="targetPoint" />
          </mxGeometry>
        </mxCell>
        <mxCell id="hT2JEiL4Q5DK7T2SiJuw-47" value="" style="endArrow=none;html=1;rounded=0;exitX=1;exitY=0;exitDx=0;exitDy=0;entryX=1;entryY=1;entryDx=0;entryDy=0;" edge="1" parent="1" source="hT2JEiL4Q5DK7T2SiJuw-16" target="hT2JEiL4Q5DK7T2SiJuw-2">
          <mxGeometry width="50" height="50" relative="1" as="geometry">
            <mxPoint x="605" y="587" as="sourcePoint" />
            <mxPoint x="570" y="555" as="targetPoint" />
          </mxGeometry>
        </mxCell>
        <mxCell id="hT2JEiL4Q5DK7T2SiJuw-48" value="" style="endArrow=none;html=1;rounded=0;entryX=1;entryY=1;entryDx=0;entryDy=0;exitX=0;exitY=0.5;exitDx=0;exitDy=0;" edge="1" parent="1" source="hT2JEiL4Q5DK7T2SiJuw-18" target="hT2JEiL4Q5DK7T2SiJuw-2">
          <mxGeometry width="50" height="50" relative="1" as="geometry">
            <mxPoint x="615" y="597" as="sourcePoint" />
            <mxPoint x="590" y="575" as="targetPoint" />
          </mxGeometry>
        </mxCell>
        <mxCell id="hT2JEiL4Q5DK7T2SiJuw-53" value="" style="endArrow=none;html=1;rounded=0;entryX=0;entryY=0.75;entryDx=0;entryDy=0;exitX=1;exitY=1;exitDx=0;exitDy=0;" edge="1" parent="1" source="hT2JEiL4Q5DK7T2SiJuw-25" target="hT2JEiL4Q5DK7T2SiJuw-4">
          <mxGeometry width="50" height="50" relative="1" as="geometry">
            <mxPoint x="80" y="220" as="sourcePoint" />
            <mxPoint x="130" y="260" as="targetPoint" />
          </mxGeometry>
        </mxCell>
        <mxCell id="hT2JEiL4Q5DK7T2SiJuw-54" value="" style="endArrow=none;html=1;rounded=0;entryX=0;entryY=0.75;entryDx=0;entryDy=0;exitX=1;exitY=0.5;exitDx=0;exitDy=0;" edge="1" parent="1" source="hT2JEiL4Q5DK7T2SiJuw-24" target="hT2JEiL4Q5DK7T2SiJuw-4">
          <mxGeometry width="50" height="50" relative="1" as="geometry">
            <mxPoint x="90" y="230" as="sourcePoint" />
            <mxPoint x="140" y="270" as="targetPoint" />
          </mxGeometry>
        </mxCell>
        <mxCell id="hT2JEiL4Q5DK7T2SiJuw-55" value="" style="endArrow=none;html=1;rounded=0;entryX=0;entryY=0.75;entryDx=0;entryDy=0;exitX=0.5;exitY=0;exitDx=0;exitDy=0;" edge="1" parent="1" source="hT2JEiL4Q5DK7T2SiJuw-23" target="hT2JEiL4Q5DK7T2SiJuw-4">
          <mxGeometry width="50" height="50" relative="1" as="geometry">
            <mxPoint x="100" y="240" as="sourcePoint" />
            <mxPoint x="150" y="280" as="targetPoint" />
          </mxGeometry>
        </mxCell>
        <mxCell id="hT2JEiL4Q5DK7T2SiJuw-56" value="Kategóriája" style="rhombus;whiteSpace=wrap;html=1;" vertex="1" parent="1">
          <mxGeometry x="760" y="470" width="110" height="90" as="geometry" />
        </mxCell>
        <mxCell id="hT2JEiL4Q5DK7T2SiJuw-58" value="" style="endArrow=none;html=1;rounded=0;entryX=1;entryY=0.5;entryDx=0;entryDy=0;exitX=0;exitY=1;exitDx=0;exitDy=0;" edge="1" parent="1" source="hT2JEiL4Q5DK7T2SiJuw-56" target="hT2JEiL4Q5DK7T2SiJuw-2">
          <mxGeometry width="50" height="50" relative="1" as="geometry">
            <mxPoint x="640" y="600" as="sourcePoint" />
            <mxPoint x="580" y="565" as="targetPoint" />
          </mxGeometry>
        </mxCell>
        <mxCell id="hT2JEiL4Q5DK7T2SiJuw-60" value="" style="endArrow=none;html=1;rounded=0;entryX=1;entryY=0;entryDx=0;entryDy=0;exitX=0.5;exitY=1;exitDx=0;exitDy=0;" edge="1" parent="1" source="hT2JEiL4Q5DK7T2SiJuw-3" target="hT2JEiL4Q5DK7T2SiJuw-56">
          <mxGeometry width="50" height="50" relative="1" as="geometry">
            <mxPoint x="840" y="365" as="sourcePoint" />
            <mxPoint x="600" y="585" as="targetPoint" />
          </mxGeometry>
        </mxCell>
        <mxCell id="hT2JEiL4Q5DK7T2SiJuw-64" value="" style="endArrow=none;html=1;rounded=0;entryX=0;entryY=0;entryDx=0;entryDy=0;exitX=0;exitY=0.75;exitDx=0;exitDy=0;" edge="1" parent="1" source="hT2JEiL4Q5DK7T2SiJuw-1" target="hT2JEiL4Q5DK7T2SiJuw-26">
          <mxGeometry width="50" height="50" relative="1" as="geometry">
            <mxPoint x="360" y="20" as="sourcePoint" />
            <mxPoint x="853" y="493" as="targetPoint" />
            <Array as="points">
              <mxPoint x="360" y="15" />
              <mxPoint x="360" y="350" />
            </Array>
          </mxGeometry>
        </mxCell>
        <mxCell id="hT2JEiL4Q5DK7T2SiJuw-65" value="" style="endArrow=none;html=1;rounded=0;entryX=0.5;entryY=1;entryDx=0;entryDy=0;exitX=0.5;exitY=0;exitDx=0;exitDy=0;" edge="1" parent="1" source="hT2JEiL4Q5DK7T2SiJuw-2" target="hT2JEiL4Q5DK7T2SiJuw-26">
          <mxGeometry width="50" height="50" relative="1" as="geometry">
            <mxPoint x="490" y="180" as="sourcePoint" />
            <mxPoint x="498" y="348" as="targetPoint" />
          </mxGeometry>
        </mxCell>
        <mxCell id="hT2JEiL4Q5DK7T2SiJuw-66" value="N" style="text;html=1;align=center;verticalAlign=middle;whiteSpace=wrap;rounded=0;" vertex="1" parent="1">
          <mxGeometry x="434" y="470" width="60" height="30" as="geometry" />
        </mxCell>
        <mxCell id="hT2JEiL4Q5DK7T2SiJuw-68" value="N" style="text;html=1;align=center;verticalAlign=middle;resizable=0;points=[];autosize=1;strokeColor=none;fillColor=none;" vertex="1" parent="1">
          <mxGeometry x="810" y="365" width="30" height="30" as="geometry" />
        </mxCell>
        <mxCell id="hT2JEiL4Q5DK7T2SiJuw-69" value="M" style="text;html=1;align=center;verticalAlign=middle;resizable=0;points=[];autosize=1;strokeColor=none;fillColor=none;" vertex="1" parent="1">
          <mxGeometry x="550" y="510" width="30" height="30" as="geometry" />
        </mxCell>
        <mxCell id="hT2JEiL4Q5DK7T2SiJuw-71" value="Kommentel" style="rhombus;whiteSpace=wrap;html=1;" vertex="1" parent="1">
          <mxGeometry x="260" y="360" width="110" height="85" as="geometry" />
        </mxCell>
        <mxCell id="hT2JEiL4Q5DK7T2SiJuw-72" value="" style="endArrow=none;html=1;rounded=0;entryX=0.5;entryY=0;entryDx=0;entryDy=0;exitX=0;exitY=0.5;exitDx=0;exitDy=0;" edge="1" parent="1" source="hT2JEiL4Q5DK7T2SiJuw-1" target="hT2JEiL4Q5DK7T2SiJuw-71">
          <mxGeometry width="50" height="50" relative="1" as="geometry">
            <mxPoint x="420" y="260" as="sourcePoint" />
            <mxPoint x="420" y="290" as="targetPoint" />
            <Array as="points">
              <mxPoint x="315" />
              <mxPoint x="315" y="290" />
            </Array>
          </mxGeometry>
        </mxCell>
        <mxCell id="hT2JEiL4Q5DK7T2SiJuw-73" value="" style="endArrow=none;html=1;rounded=0;exitX=1;exitY=0;exitDx=0;exitDy=0;entryX=0;entryY=0.5;entryDx=0;entryDy=0;" edge="1" parent="1" source="hT2JEiL4Q5DK7T2SiJuw-4" target="hT2JEiL4Q5DK7T2SiJuw-71">
          <mxGeometry width="50" height="50" relative="1" as="geometry">
            <mxPoint x="430" y="180" as="sourcePoint" />
            <mxPoint x="430" y="300" as="targetPoint" />
            <Array as="points">
              <mxPoint x="260" y="420" />
            </Array>
          </mxGeometry>
        </mxCell>
        <mxCell id="hT2JEiL4Q5DK7T2SiJuw-74" value="N" style="text;html=1;align=center;verticalAlign=middle;resizable=0;points=[];autosize=1;strokeColor=none;fillColor=none;" vertex="1" parent="1">
          <mxGeometry x="200" y="390" width="30" height="30" as="geometry" />
        </mxCell>
        <mxCell id="hT2JEiL4Q5DK7T2SiJuw-79" value="Album" style="rounded=0;whiteSpace=wrap;html=1;" vertex="1" parent="1">
          <mxGeometry x="770" y="170" width="120" height="60" as="geometry" />
        </mxCell>
        <mxCell id="hT2JEiL4Q5DK7T2SiJuw-80" value="&lt;u&gt;AlbumID&lt;/u&gt;" style="ellipse;whiteSpace=wrap;html=1;" vertex="1" parent="1">
          <mxGeometry x="870" y="90" width="100" height="40" as="geometry" />
        </mxCell>
        <mxCell id="hT2JEiL4Q5DK7T2SiJuw-81" value="Név" style="ellipse;whiteSpace=wrap;html=1;" vertex="1" parent="1">
          <mxGeometry x="920" y="150" width="100" height="40" as="geometry" />
        </mxCell>
        <mxCell id="hT2JEiL4Q5DK7T2SiJuw-85" value="" style="endArrow=none;html=1;rounded=0;exitX=1;exitY=0;exitDx=0;exitDy=0;entryX=0;entryY=0.5;entryDx=0;entryDy=0;" edge="1" parent="1" source="hT2JEiL4Q5DK7T2SiJuw-26" target="hT2JEiL4Q5DK7T2SiJuw-79">
          <mxGeometry width="50" height="50" relative="1" as="geometry">
            <mxPoint x="672.5" y="222.5" as="sourcePoint" />
            <mxPoint x="780" y="188" as="targetPoint" />
            <Array as="points">
              <mxPoint x="660" y="350" />
              <mxPoint x="660" y="200" />
            </Array>
          </mxGeometry>
        </mxCell>
        <mxCell id="hT2JEiL4Q5DK7T2SiJuw-87" value="" style="endArrow=none;html=1;rounded=0;entryX=1;entryY=0.5;entryDx=0;entryDy=0;exitX=0;exitY=0.5;exitDx=0;exitDy=0;" edge="1" parent="1" source="hT2JEiL4Q5DK7T2SiJuw-81" target="hT2JEiL4Q5DK7T2SiJuw-79">
          <mxGeometry width="50" height="50" relative="1" as="geometry">
            <mxPoint x="935" y="309" as="sourcePoint" />
            <mxPoint x="910" y="335" as="targetPoint" />
          </mxGeometry>
        </mxCell>
        <mxCell id="hT2JEiL4Q5DK7T2SiJuw-89" value="" style="endArrow=none;html=1;rounded=0;entryX=1;entryY=0.5;entryDx=0;entryDy=0;exitX=0.5;exitY=1;exitDx=0;exitDy=0;" edge="1" parent="1" source="hT2JEiL4Q5DK7T2SiJuw-80" target="hT2JEiL4Q5DK7T2SiJuw-79">
          <mxGeometry width="50" height="50" relative="1" as="geometry">
            <mxPoint x="920" y="140" as="sourcePoint" />
            <mxPoint x="900" y="198" as="targetPoint" />
          </mxGeometry>
        </mxCell>
        <mxCell id="hT2JEiL4Q5DK7T2SiJuw-91" value="Tartozik" style="rhombus;whiteSpace=wrap;html=1;" vertex="1" parent="1">
          <mxGeometry x="220" y="530" width="110" height="85" as="geometry" />
        </mxCell>
        <mxCell id="hT2JEiL4Q5DK7T2SiJuw-94" value="" style="endArrow=none;html=1;rounded=0;exitX=1;exitY=1;exitDx=0;exitDy=0;entryX=0.5;entryY=0;entryDx=0;entryDy=0;" edge="1" parent="1" source="hT2JEiL4Q5DK7T2SiJuw-4" target="hT2JEiL4Q5DK7T2SiJuw-91">
          <mxGeometry width="50" height="50" relative="1" as="geometry">
            <mxPoint x="200" y="430" as="sourcePoint" />
            <mxPoint x="270" y="413" as="targetPoint" />
            <Array as="points">
              <mxPoint x="275" y="480" />
            </Array>
          </mxGeometry>
        </mxCell>
        <mxCell id="hT2JEiL4Q5DK7T2SiJuw-95" value="" style="endArrow=none;html=1;rounded=0;exitX=0;exitY=0.5;exitDx=0;exitDy=0;entryX=1;entryY=0.5;entryDx=0;entryDy=0;" edge="1" parent="1" source="hT2JEiL4Q5DK7T2SiJuw-2" target="hT2JEiL4Q5DK7T2SiJuw-91">
          <mxGeometry width="50" height="50" relative="1" as="geometry">
            <mxPoint x="200" y="490" as="sourcePoint" />
            <mxPoint x="285" y="540" as="targetPoint" />
            <Array as="points">
              <mxPoint x="330" y="540" />
            </Array>
          </mxGeometry>
        </mxCell>
        <mxCell id="hT2JEiL4Q5DK7T2SiJuw-96" value="1" style="text;html=1;align=center;verticalAlign=middle;whiteSpace=wrap;rounded=0;" vertex="1" parent="1">
          <mxGeometry x="374" y="510" width="60" height="30" as="geometry" />
        </mxCell>
        <mxCell id="hT2JEiL4Q5DK7T2SiJuw-97" value="N" style="text;html=1;align=center;verticalAlign=middle;resizable=0;points=[];autosize=1;strokeColor=none;fillColor=none;" vertex="1" parent="1">
          <mxGeometry x="190" y="450" width="30" height="30" as="geometry" />
        </mxCell>
        <mxCell id="hT2JEiL4Q5DK7T2SiJuw-100" value="Like" style="rounded=0;whiteSpace=wrap;html=1;" vertex="1" parent="1">
          <mxGeometry x="130" y="670" width="120" height="60" as="geometry" />
        </mxCell>
        <mxCell id="hT2JEiL4Q5DK7T2SiJuw-101" value="" style="endArrow=none;html=1;rounded=0;exitX=0.5;exitY=0;exitDx=0;exitDy=0;entryX=0;entryY=1;entryDx=0;entryDy=0;" edge="1" parent="1" source="hT2JEiL4Q5DK7T2SiJuw-100" target="hT2JEiL4Q5DK7T2SiJuw-91">
          <mxGeometry width="50" height="50" relative="1" as="geometry">
            <mxPoint x="430" y="550" as="sourcePoint" />
            <mxPoint x="340" y="583" as="targetPoint" />
            <Array as="points">
              <mxPoint x="190" y="594" />
            </Array>
          </mxGeometry>
        </mxCell>
        <mxCell id="hT2JEiL4Q5DK7T2SiJuw-102" value="&lt;u&gt;KépID&lt;/u&gt;" style="ellipse;whiteSpace=wrap;html=1;" vertex="1" parent="1">
          <mxGeometry x="157.5" y="770" width="95" height="40" as="geometry" />
        </mxCell>
        <mxCell id="hT2JEiL4Q5DK7T2SiJuw-103" value="&lt;u&gt;FelhasználóID&lt;/u&gt;" style="ellipse;whiteSpace=wrap;html=1;" vertex="1" parent="1">
          <mxGeometry x="274" y="760" width="100" height="40" as="geometry" />
        </mxCell>
        <mxCell id="hT2JEiL4Q5DK7T2SiJuw-104" value="" style="endArrow=none;html=1;rounded=0;entryX=0.5;entryY=1;entryDx=0;entryDy=0;exitX=0.408;exitY=0.059;exitDx=0;exitDy=0;exitPerimeter=0;" edge="1" parent="1" source="hT2JEiL4Q5DK7T2SiJuw-102" target="hT2JEiL4Q5DK7T2SiJuw-100">
          <mxGeometry width="50" height="50" relative="1" as="geometry">
            <mxPoint x="40" y="530" as="sourcePoint" />
            <mxPoint x="80" y="475" as="targetPoint" />
          </mxGeometry>
        </mxCell>
        <mxCell id="hT2JEiL4Q5DK7T2SiJuw-105" value="" style="endArrow=none;html=1;rounded=0;entryX=0.5;entryY=1;entryDx=0;entryDy=0;exitX=0;exitY=0;exitDx=0;exitDy=0;" edge="1" parent="1" source="hT2JEiL4Q5DK7T2SiJuw-103" target="hT2JEiL4Q5DK7T2SiJuw-100">
          <mxGeometry width="50" height="50" relative="1" as="geometry">
            <mxPoint x="206" y="782" as="sourcePoint" />
            <mxPoint x="200" y="740" as="targetPoint" />
          </mxGeometry>
        </mxCell>
        <mxCell id="hT2JEiL4Q5DK7T2SiJuw-106" value="&lt;u&gt;FelhasználóID&lt;/u&gt;" style="ellipse;whiteSpace=wrap;html=1;" vertex="1" parent="1">
          <mxGeometry x="930" y="210" width="100" height="40" as="geometry" />
        </mxCell>
        <mxCell id="hT2JEiL4Q5DK7T2SiJuw-107" value="" style="endArrow=none;html=1;rounded=0;exitX=0.028;exitY=0.265;exitDx=0;exitDy=0;entryX=1;entryY=0.5;entryDx=0;entryDy=0;exitPerimeter=0;" edge="1" parent="1" source="hT2JEiL4Q5DK7T2SiJuw-106" target="hT2JEiL4Q5DK7T2SiJuw-79">
          <mxGeometry width="50" height="50" relative="1" as="geometry">
            <mxPoint x="930" y="180" as="sourcePoint" />
            <mxPoint x="870" y="170" as="targetPoint" />
          </mxGeometry>
        </mxCell>
        <mxCell id="hT2JEiL4Q5DK7T2SiJuw-113" value="" style="triangle;whiteSpace=wrap;html=1;rotation=-90;" vertex="1" parent="1">
          <mxGeometry x="450" y="70" width="60" height="80" as="geometry" />
        </mxCell>
        <mxCell id="hT2JEiL4Q5DK7T2SiJuw-114" value="" style="endArrow=none;html=1;rounded=0;entryX=0.5;entryY=0;entryDx=0;entryDy=0;" edge="1" parent="1" target="hT2JEiL4Q5DK7T2SiJuw-10">
          <mxGeometry width="50" height="50" relative="1" as="geometry">
            <mxPoint x="480" y="240" as="sourcePoint" />
            <mxPoint x="480" y="330" as="targetPoint" />
          </mxGeometry>
        </mxCell>
        <mxCell id="hT2JEiL4Q5DK7T2SiJuw-10" value="Admin" style="rounded=0;whiteSpace=wrap;html=1;" vertex="1" parent="1">
          <mxGeometry x="420" y="205" width="120" height="60" as="geometry" />
        </mxCell>
        <mxCell id="hT2JEiL4Q5DK7T2SiJuw-115" value="" style="endArrow=none;html=1;rounded=0;entryX=0.5;entryY=1;entryDx=0;entryDy=0;exitX=1;exitY=0.5;exitDx=0;exitDy=0;" edge="1" parent="1" source="hT2JEiL4Q5DK7T2SiJuw-113" target="hT2JEiL4Q5DK7T2SiJuw-1">
          <mxGeometry width="50" height="50" relative="1" as="geometry">
            <mxPoint x="415" y="-66" as="sourcePoint" />
            <mxPoint x="490" y="-20" as="targetPoint" />
          </mxGeometry>
        </mxCell>
        <mxCell id="hT2JEiL4Q5DK7T2SiJuw-116" value="" style="endArrow=none;html=1;rounded=0;entryX=0.5;entryY=0;entryDx=0;entryDy=0;exitX=0;exitY=0.5;exitDx=0;exitDy=0;" edge="1" parent="1" source="hT2JEiL4Q5DK7T2SiJuw-113" target="hT2JEiL4Q5DK7T2SiJuw-10">
          <mxGeometry width="50" height="50" relative="1" as="geometry">
            <mxPoint x="490" y="90" as="sourcePoint" />
            <mxPoint x="490" y="40" as="targetPoint" />
          </mxGeometry>
        </mxCell>
        <mxCell id="hT2JEiL4Q5DK7T2SiJuw-117" value="1" style="text;html=1;align=center;verticalAlign=middle;whiteSpace=wrap;rounded=0;" vertex="1" parent="1">
          <mxGeometry x="370" y="-30" width="60" height="30" as="geometry" />
        </mxCell>
        <mxCell id="hT2JEiL4Q5DK7T2SiJuw-118" value="N" style="text;html=1;align=center;verticalAlign=middle;resizable=0;points=[];autosize=1;strokeColor=none;fillColor=none;" vertex="1" parent="1">
          <mxGeometry x="160" y="640" width="30" height="30" as="geometry" />
        </mxCell>
        <mxCell id="hT2JEiL4Q5DK7T2SiJuw-119" value="1" style="text;html=1;align=center;verticalAlign=middle;whiteSpace=wrap;rounded=0;" vertex="1" parent="1">
          <mxGeometry x="384" y="10" width="60" height="30" as="geometry" />
        </mxCell>
        <mxCell id="hT2JEiL4Q5DK7T2SiJuw-121" value="1" style="text;html=1;align=center;verticalAlign=middle;whiteSpace=wrap;rounded=0;" vertex="1" parent="1">
          <mxGeometry x="720" y="170" width="60" height="30" as="geometry" />
        </mxCell>
        <mxCell id="hT2JEiL4Q5DK7T2SiJuw-123" value="AdminID" style="ellipse;whiteSpace=wrap;html=1;" vertex="1" parent="1">
          <mxGeometry x="550" y="140" width="90" height="50" as="geometry" />
        </mxCell>
        <mxCell id="hT2JEiL4Q5DK7T2SiJuw-124" value="" style="endArrow=none;html=1;rounded=0;entryX=0.75;entryY=0;entryDx=0;entryDy=0;exitX=0;exitY=1;exitDx=0;exitDy=0;" edge="1" parent="1" source="hT2JEiL4Q5DK7T2SiJuw-123" target="hT2JEiL4Q5DK7T2SiJuw-10">
          <mxGeometry width="50" height="50" relative="1" as="geometry">
            <mxPoint x="610" y="10" as="sourcePoint" />
            <mxPoint x="550" y="10" as="targetPoint" />
          </mxGeometry>
        </mxCell>
        <mxCell id="hT2JEiL4Q5DK7T2SiJuw-127" value="" style="endArrow=none;html=1;rounded=0;exitX=1;exitY=1;exitDx=0;exitDy=0;" edge="1" parent="1" source="hT2JEiL4Q5DK7T2SiJuw-31">
          <mxGeometry width="50" height="50" relative="1" as="geometry">
            <mxPoint x="409" y="-76" as="sourcePoint" />
            <mxPoint x="480" y="-30" as="targetPoint" />
          </mxGeometry>
        </mxCell>
      </root>
    </mxGraphModel>
  </diagram>
</mxfile>
